%
M48
M72
T01C0.0118
T02C0.0400
T03C0.1300
%
T01
X4334Y4375
X5834Y4375
X6084Y5625
X5334Y6375
X6584Y7125
X6834Y7875
X6334Y8375
X5334Y7875
X5334Y9375
X5959Y9625
X7834Y9625
X8584Y8731
X9834Y9625
X10084Y10000
X11084Y8625
X10834Y7875
X11334Y7125
X12334Y6375
X12690Y7750
X12334Y8125
X12334Y9375
X15534Y9375
X16159Y9625
X16534Y8375
X17034Y7875
X16784Y7125
X15534Y7875
X15534Y6375
X16284Y5625
X16034Y4375
X14534Y4375
X18034Y4875
X19034Y4375
X20034Y3875
X21034Y4375
X22534Y6375
X21534Y7125
X21034Y7875
X21284Y8625
X22534Y8125
X22890Y7750
X22534Y9375
X20284Y10000
X20034Y9625
X18784Y8731
X18034Y9625
X19784Y6625
X24734Y4375
X26234Y4375
X26484Y5625
X25734Y6375
X26984Y7125
X27234Y7875
X26734Y8375
X25734Y7875
X25734Y9375
X26359Y9625
X28234Y9625
X28984Y8731
X30234Y9625
X30484Y10000
X31484Y8625
X31234Y7875
X31734Y7125
X32734Y6375
X33090Y7750
X32734Y8125
X32734Y9375
X35934Y9375
X36559Y9625
X36934Y8375
X37434Y7875
X37184Y7125
X35934Y7875
X35934Y6375
X36684Y5625
X36434Y4375
X34934Y4375
X31234Y4375
X30234Y3875
X29234Y4375
X28234Y4875
X29984Y6625
X30234Y14075
X29234Y14575
X28234Y15075
X26484Y15825
X25734Y16575
X26984Y17325
X27234Y18075
X26734Y18575
X25734Y18075
X25734Y19575
X26359Y19825
X28234Y19825
X28984Y18931
X30234Y19825
X30484Y20200
X31484Y18825
X31234Y18075
X31734Y17325
X32734Y16575
X33090Y17950
X32734Y18325
X32734Y19575
X35934Y19575
X36559Y19825
X36934Y18575
X37434Y18075
X37184Y17325
X35934Y16575
X36684Y15825
X36434Y14575
X34934Y14575
X35934Y18075
X38434Y19825
X39184Y18931
X40434Y19825
X40684Y20200
X41684Y18825
X41434Y18075
X41934Y17325
X42934Y16575
X43290Y17950
X42934Y18325
X42934Y19575
X46134Y19575
X46759Y19825
X47134Y18575
X47634Y18075
X47384Y17325
X46134Y16575
X46884Y15825
X46634Y14575
X45134Y14575
X48634Y15075
X49634Y14575
X50634Y14075
X51634Y14575
X53134Y16575
X52134Y17325
X51634Y18075
X51884Y18825
X53134Y18325
X53490Y17950
X53134Y19575
X50884Y20200
X50634Y19825
X49384Y18931
X48634Y19825
X46134Y18075
X50384Y16825
X50884Y10000
X50634Y9625
X49384Y8731
X48634Y9625
X47134Y8375
X47634Y7875
X47384Y7125
X46134Y6375
X46884Y5625
X46634Y4375
X45134Y4375
X42934Y6375
X41934Y7125
X41434Y7875
X41684Y8625
X42934Y8125
X43290Y7750
X42934Y9375
X40684Y10000
X40434Y9625
X39184Y8731
X38434Y9625
X40184Y6625
X38434Y4875
X39434Y4375
X40434Y3875
X41434Y4375
X46134Y7875
X46134Y9375
X46759Y9625
X50384Y6625
X51634Y7875
X51884Y8625
X53134Y8125
X53490Y7750
X53134Y6375
X52134Y7125
X53134Y9375
X48634Y4875
X49634Y4375
X50634Y3875
X51634Y4375
X41434Y14575
X40434Y14075
X39434Y14575
X38434Y15075
X40184Y16825
X40434Y24275
X41434Y24775
X39434Y24775
X38434Y25275
X36684Y26025
X35934Y26775
X37184Y27525
X37434Y28275
X36934Y28775
X35934Y28275
X35934Y29775
X36559Y30025
X38434Y30025
X39184Y29131
X40434Y30025
X40684Y30400
X41684Y29025
X41434Y28275
X41934Y27525
X42934Y26775
X43290Y28150
X42934Y28525
X42934Y29775
X46134Y29775
X46759Y30025
X47134Y28775
X47634Y28275
X47384Y27525
X46134Y26775
X46884Y26025
X46634Y24775
X45134Y24775
X48634Y25275
X49634Y24775
X50634Y24275
X51634Y24775
X53134Y26775
X52134Y27525
X51634Y28275
X51884Y29025
X53134Y28525
X53490Y28150
X53134Y29775
X50884Y30400
X50634Y30025
X49384Y29131
X48634Y30025
X46134Y28275
X50384Y27025
X50634Y34475
X49634Y34975
X48634Y35475
X46884Y36225
X46134Y36975
X47384Y37725
X47634Y38475
X47134Y38975
X46134Y38475
X46134Y39975
X46759Y40225
X48634Y40225
X49384Y39331
X50634Y40225
X50884Y40600
X51884Y39225
X51634Y38475
X52134Y37725
X53134Y36975
X53490Y38350
X53134Y38725
X53134Y39975
X50384Y37225
X51634Y34975
X46634Y34975
X45134Y34975
X42934Y36975
X41934Y37725
X41434Y38475
X41684Y39225
X42934Y38725
X43290Y38350
X42934Y39975
X40684Y40600
X40434Y40225
X39184Y39331
X38434Y40225
X36559Y40225
X35934Y39975
X36934Y38975
X37434Y38475
X37184Y37725
X35934Y36975
X36684Y36225
X36434Y34975
X34934Y34975
X32734Y36975
X31734Y37725
X31234Y38475
X31484Y39225
X32734Y38725
X33090Y38350
X32734Y39975
X30484Y40600
X30234Y40225
X28984Y39331
X28234Y40225
X26734Y38975
X27234Y38475
X26984Y37725
X25734Y36975
X26484Y36225
X26234Y34975
X24734Y34975
X22534Y36975
X21534Y37725
X21034Y38475
X21284Y39225
X22534Y38725
X22890Y38350
X22534Y39975
X20284Y40600
X20034Y40225
X18784Y39331
X18034Y40225
X16534Y38975
X17034Y38475
X16784Y37725
X15534Y36975
X16284Y36225
X16034Y34975
X14534Y34975
X12334Y36975
X11334Y37725
X10834Y38475
X11084Y39225
X12334Y38725
X12690Y38350
X12334Y39975
X10084Y40600
X9834Y40225
X8584Y39331
X7834Y40225
X5959Y40225
X5334Y39975
X6334Y38975
X6834Y38475
X6584Y37725
X5334Y36975
X6084Y36225
X5834Y34975
X4334Y34975
X7834Y35475
X8834Y34975
X9834Y34475
X10834Y34975
X9584Y37225
X5334Y38475
X9834Y44675
X10834Y45175
X8834Y45175
X7834Y45675
X6084Y46425
X5334Y47175
X6584Y47925
X6834Y48675
X6334Y49175
X5334Y48675
X5334Y50175
X5959Y50425
X7834Y50425
X8584Y49531
X9834Y50425
X10084Y50800
X11084Y49425
X10834Y48675
X11334Y47925
X12334Y48925
X12690Y48550
X12334Y50175
X9584Y47425
X12334Y47175
X14534Y45175
X16034Y45175
X16284Y46425
X15534Y47175
X16784Y47925
X17034Y48675
X16534Y49175
X15534Y48675
X15534Y50175
X16159Y50425
X18034Y50425
X18784Y49531
X20034Y50425
X20284Y50800
X21284Y49425
X21034Y48675
X21534Y47925
X22534Y48925
X22890Y48550
X22534Y50175
X19784Y47425
X18034Y45675
X19034Y45175
X20034Y44675
X21034Y45175
X22534Y47175
X24734Y45175
X26234Y45175
X26484Y46425
X25734Y47175
X26984Y47925
X27234Y48675
X26734Y49175
X25734Y48675
X25734Y50175
X26359Y50425
X28234Y50425
X28984Y49531
X30234Y50425
X30484Y50800
X31484Y49425
X31234Y48675
X31734Y47925
X32734Y47175
X33090Y48550
X32734Y48925
X32734Y50175
X29984Y47425
X28234Y45675
X29234Y45175
X30234Y44675
X31234Y45175
X34934Y45175
X36434Y45175
X36684Y46425
X35934Y47175
X37184Y47925
X37434Y48675
X36934Y49175
X35934Y48675
X35934Y50175
X36559Y50425
X38434Y50425
X39184Y49531
X40434Y50425
X40684Y50800
X41684Y49425
X41434Y48675
X41934Y47925
X42934Y47175
X43290Y48550
X42934Y48925
X42934Y50175
X46134Y50175
X46759Y50425
X47134Y49175
X47634Y48675
X47384Y47925
X46134Y48675
X46134Y47175
X46884Y46425
X46634Y45175
X45134Y45175
X48634Y45675
X49634Y45175
X50634Y44675
X51634Y45175
X53134Y47175
X52134Y47925
X51634Y48675
X51884Y49425
X53134Y48925
X53490Y48550
X53134Y50175
X50884Y50800
X50634Y50425
X49384Y49531
X48634Y50425
X50384Y47425
X41434Y45175
X40434Y44675
X39434Y45175
X38434Y45675
X40184Y47425
X35934Y38475
X38434Y35475
X39434Y34975
X40434Y34475
X41434Y34975
X40184Y37225
X32734Y29775
X32734Y28525
X33090Y28150
X32734Y26775
X31734Y27525
X31234Y28275
X31484Y29025
X30234Y30025
X30484Y30400
X28984Y29131
X28234Y30025
X26734Y28775
X27234Y28275
X26984Y27525
X25734Y26775
X26484Y26025
X26234Y24775
X24734Y24775
X22534Y26775
X21534Y27525
X21034Y28275
X21284Y29025
X22534Y28525
X22890Y28150
X22534Y29775
X20284Y30400
X20034Y30025
X18784Y29131
X18034Y30025
X16534Y28775
X17034Y28275
X16784Y27525
X15534Y26775
X16284Y26025
X16034Y24775
X14534Y24775
X12334Y26775
X11334Y27525
X10834Y28275
X11084Y29025
X12334Y28525
X12690Y28150
X12334Y29775
X10084Y30400
X9834Y30025
X8584Y29131
X7834Y30025
X5959Y30025
X5334Y29775
X6334Y28775
X6834Y28275
X6584Y27525
X5334Y26775
X6084Y26025
X5834Y24775
X4334Y24775
X7834Y25275
X8834Y24775
X9834Y24275
X10834Y24775
X9584Y27025
X5334Y28275
X10084Y20200
X9834Y19825
X8584Y18931
X7834Y19825
X5959Y19825
X5334Y19575
X6334Y18575
X6834Y18075
X6584Y17325
X5334Y16575
X6084Y15825
X5834Y14575
X4334Y14575
X5334Y18075
X7834Y15075
X8834Y14575
X9834Y14075
X10834Y14575
X12334Y16575
X11334Y17325
X10834Y18075
X11084Y18825
X12334Y18325
X12690Y17950
X12334Y19575
X15534Y19575
X16159Y19825
X16534Y18575
X17034Y18075
X16784Y17325
X15534Y16575
X16284Y15825
X16034Y14575
X14534Y14575
X18034Y15075
X19034Y14575
X20034Y14075
X21034Y14575
X22534Y16575
X21534Y17325
X21034Y18075
X21284Y18825
X22534Y18325
X22890Y17950
X22534Y19575
X20284Y20200
X20034Y19825
X18784Y18931
X18034Y19825
X15534Y18075
X19784Y16825
X24734Y14575
X26234Y14575
X29984Y16825
X31234Y14575
X30234Y24275
X29234Y24775
X28234Y25275
X29984Y27025
X31234Y24775
X34934Y24775
X36434Y24775
X40184Y27025
X31234Y34975
X30234Y34475
X29234Y34975
X28234Y35475
X29984Y37225
X26359Y40225
X25734Y39975
X25734Y38475
X21034Y34975
X20034Y34475
X19034Y34975
X18034Y35475
X19784Y37225
X16159Y40225
X15534Y39975
X15534Y38475
X16159Y30025
X15534Y29775
X15534Y28275
X18034Y25275
X19034Y24775
X20034Y24275
X21034Y24775
X19784Y27025
X25734Y28275
X25734Y29775
X26359Y30025
X9584Y16825
X9584Y6625
X7834Y4875
X8834Y4375
X9834Y3875
X10834Y4375
X5834Y45175
X4334Y45175
T02
X7334Y44175
X8334Y44175
X9334Y44175
X10334Y44175
X17534Y44175
X18534Y44175
X19534Y44175
X20534Y44175
X27734Y44175
X28734Y44175
X29734Y44175
X30734Y44175
X37934Y44175
X38934Y44175
X39934Y44175
X40934Y44175
X48134Y44175
X49134Y44175
X50134Y44175
X51134Y44175
X51134Y33975
X50134Y33975
X49134Y33975
X48134Y33975
X40934Y33975
X39934Y33975
X38934Y33975
X37934Y33975
X30734Y33975
X29734Y33975
X28734Y33975
X27734Y33975
X20534Y33975
X19534Y33975
X18534Y33975
X17534Y33975
X10334Y33975
X9334Y33975
X8334Y33975
X7334Y33975
X7334Y23775
X8334Y23775
X9334Y23775
X10334Y23775
X17534Y23775
X18534Y23775
X19534Y23775
X20534Y23775
X27734Y23775
X28734Y23775
X29734Y23775
X30734Y23775
X37934Y23775
X38934Y23775
X39934Y23775
X40934Y23775
X48134Y23775
X49134Y23775
X50134Y23775
X51134Y23775
X51134Y13575
X50134Y13575
X49134Y13575
X48134Y13575
X40934Y13575
X39934Y13575
X38934Y13575
X37934Y13575
X30734Y13575
X29734Y13575
X28734Y13575
X27734Y13575
X20534Y13575
X19534Y13575
X18534Y13575
X17534Y13575
X10334Y13575
X9334Y13575
X8334Y13575
X7334Y13575
X7334Y3375
X8334Y3375
X9334Y3375
X10334Y3375
X17534Y3375
X18534Y3375
X19534Y3375
X20534Y3375
X27734Y3375
X28734Y3375
X29734Y3375
X30734Y3375
X37934Y3375
X38934Y3375
X39934Y3375
X40934Y3375
X48134Y3375
X49134Y3375
X50134Y3375
X51134Y3375
T03
X53634Y11875
X45634Y11875
X43434Y11875
X35434Y11875
X33234Y11875
X25234Y11875
X23034Y11875
X15034Y11875
X12834Y11875
X4834Y11875
X4834Y22075
X12834Y22075
X15034Y22075
X23034Y22075
X25234Y22075
X33234Y22075
X35434Y22075
X43434Y22075
X45634Y22075
X53634Y22075
X53634Y32275
X45634Y32275
X43434Y32275
X35434Y32275
X33234Y32275
X25234Y32275
X23034Y32275
X15034Y32275
X12834Y32275
X4834Y32275
X4834Y42475
X12834Y42475
X15034Y42475
X23034Y42475
X25234Y42475
X33234Y42475
X35434Y42475
X43434Y42475
X45634Y42475
X53634Y42475
X53634Y52675
X45634Y52675
X43434Y52675
X35434Y52675
X33234Y52675
X25234Y52675
X23034Y52675
X15034Y52675
X12834Y52675
X4834Y52675
M30
